<svg id="Group_5" data-name="Group 5" xmlns="http://www.w3.org/2000/svg" width="162.195" height="31.957" viewBox="0 0 162.195 31.957">
  <path id="Path_1" data-name="Path 1" d="M82.747,179.871h22.838V202.71Z" transform="translate(-82.734 -179.54)" fill="#003189" fill-rule="evenodd"/>
  <path id="Path_2" data-name="Path 2" d="M110.8,221.082,82.7,192.946v9.621L101.225,221.1Z" transform="translate(-82.697 -189.23)" fill="#d8002d" fill-rule="evenodd"/>
  <path id="Path_3" data-name="Path 3" d="M336.746,197.235h-2.627v-8.8h-9.949v8.8h-2.989V178.928h2.989v6.985h9.949v-6.985h2.989v18.307Zm-23.889-14.6-2.456,1.054-.1-.4a2.41,2.41,0,0,0-.432-.876,3.007,3.007,0,0,0-.8-.7,4.1,4.1,0,0,0-1.049-.468,4.176,4.176,0,0,0-1.143-.154,3.01,3.01,0,0,0-2.179.807,2.315,2.315,0,0,0-.617,1.081,2.191,2.191,0,0,0,.044,1.215,2.552,2.552,0,0,0,1.338,1.457c.44.148.908.288,1.387.432,2.216.664,4.673,1.4,5.794,3.246a5.08,5.08,0,0,1,.667,3.681,5.648,5.648,0,0,1-2.06,3.285l-.031.022a8.005,8.005,0,0,1-4.056,1.22,8.131,8.131,0,0,1-4.144-.974l-.03-.018a5.2,5.2,0,0,1-1.564-1.616,8.722,8.722,0,0,1-.833-1.968l-.084-.265,2.9-1.344v.54a2.9,2.9,0,0,0,.263,1.245,3.018,3.018,0,0,0,.792,1.014,3.568,3.568,0,0,0,.693.463,4.136,4.136,0,0,0,2.433.4,3.3,3.3,0,0,0,2.07-1.072,2.773,2.773,0,0,0,.362-.54,2.713,2.713,0,0,0,.254-1.97,2.521,2.521,0,0,0-1.21-1.479c-.109-.06-.266-.138-.47-.23s-.467-.2-.788-.336c-.317-.1-.659-.2-1-.306-1.838-.551-3.618-1.085-4.886-2.628a4.226,4.226,0,0,1-.968-3.108,5.133,5.133,0,0,1,1.51-3.121,6.244,6.244,0,0,1,4.267-1.635,7.447,7.447,0,0,1,4.655,1.367,5.162,5.162,0,0,1,1.006,1.028,4.782,4.782,0,0,1,.653,1.245l.1.28Zm-20.015,14.6H282.015V178.928H293.2V181.5h-8.148v4.555H293.2v2.478h-8.148v6.128H293.2v2.574Zm-19.03,0h-2.837l-1.968-12.151-5.718,12.18-1.142-.014-5.6-12.24-2.143,12.229-3.134-.005q1.988-9.221,3.97-18.443h1.343l6.155,13.451,6.412-13.451h1.342q1.882,9.221,3.754,18.445Zm-35.243-7.747-2.7-6.357-2.611,6.357ZM245,197.235H242.06l-2.464-5.483H232.4l-2.472,5.477-3.285.005q4.387-9.223,8.777-18.445h1.094q4.521,9.224,9.047,18.445Zm-31.43-15.805h-3.308v5.246H214.2a2.124,2.124,0,0,0,2.091-1.373,2.819,2.819,0,0,0,.185-1.077,3.056,3.056,0,0,0-.232-1.107A2.741,2.741,0,0,0,213.573,181.43Zm6.7,15.8-3.315,0-6.692-8.334v8.335H207.12v-18.31l7.495.075a5.1,5.1,0,0,1,2.022.387,4.669,4.669,0,0,1,1.625,1.16c.062.067.122.136.181.207a5.2,5.2,0,0,1,1.229,3.479,4.719,4.719,0,0,1-1.551,3.354c-.047.045-.113.1-.192.167l-.014.012a5.331,5.331,0,0,1-4.065,1.106h-.057l7.227,8.357Z" transform="translate(-174.914 -178.59)" fill="#003189"/>
  <path id="Path_4" data-name="Path 4" d="M580.056,275.431a.614.614,0,0,1,.162.085.568.568,0,0,1,.13.136.634.634,0,0,1,.078.164.61.61,0,0,1-.007.383.5.5,0,0,1-.1.171.437.437,0,0,1-.175.12.694.694,0,0,1-.46,0,.5.5,0,0,1-.187-.127.555.555,0,0,1-.115-.182.6.6,0,0,1-.039-.215.564.564,0,0,1,.085-.309.614.614,0,0,1,.246-.214l.017-.006a.9.9,0,0,1,.157-.026l.084,0a.438.438,0,0,1,.072.005l.025.008Zm-1.279-6.231c-.08-.027-.164-.053-.252-.074s-.173-.038-.265-.053h-1.238v2.632h1.553a1.321,1.321,0,0,0,.388-.191,1.287,1.287,0,0,0,.306-.317,1.443,1.443,0,0,0,.262-.84,1.415,1.415,0,0,0-.047-.367,1.289,1.289,0,0,0-.14-.328,1.017,1.017,0,0,0-.233-.269A1.282,1.282,0,0,0,578.777,269.2Zm1.971.945v.289a2.364,2.364,0,0,1-.145.834,2.219,2.219,0,0,1-.433.708,2.184,2.184,0,0,1-.669.5,2.485,2.485,0,0,1-.843.23h-1.636v3.716h-1.195v-8.415c.915.01,1.86,0,2.771.035a2.921,2.921,0,0,1,.834.217,2.521,2.521,0,0,1,.692.444,1.878,1.878,0,0,1,.468.643A1.97,1.97,0,0,1,580.748,270.145Zm-14.324-.966c-.047-.018-.095-.035-.143-.049s-.1-.029-.152-.042a1.314,1.314,0,0,0-.145-.027,1,1,0,0,0-.129-.009h-1.477v2.577h1.744a1.059,1.059,0,0,0,.437-.085.857.857,0,0,0,.321-.253,1.226,1.226,0,0,0,.206-.385,1.5,1.5,0,0,0,.069-.466,1.684,1.684,0,0,0-.047-.4,1.526,1.526,0,0,0-.142-.365,1.111,1.111,0,0,0-.229-.293A1.136,1.136,0,0,0,566.424,269.179Zm2.295,7.246-1.385,0-2.955-4.018v4.019h-1.217v-8.415l3.139.034a1.884,1.884,0,0,1,1.51.7,2.424,2.424,0,0,1,.584,1.6,2.532,2.532,0,0,1-.042.467,2.267,2.267,0,0,1-.126.435,1.9,1.9,0,0,1-.223.4,2.353,2.353,0,0,1-.328.365l0,0a2.716,2.716,0,0,1-.444.3,2.66,2.66,0,0,1-.487.2l-.026,0-.9,0,3.092,3.9Zm-12.4-4.288a3.094,3.094,0,0,0-.995-2.33,3.391,3.391,0,0,0-1.1-.717,3.475,3.475,0,0,0-1.3-.238,3.086,3.086,0,0,0-2.326,1,3.4,3.4,0,0,0-.716,1.1,3.494,3.494,0,0,0-.238,1.3,3.208,3.208,0,0,0,.247,1.27,3.168,3.168,0,0,0,.742,1.054,3.368,3.368,0,0,0,1.1.713,3.519,3.519,0,0,0,1.305.237,3.085,3.085,0,0,0,2.326-1,3.4,3.4,0,0,0,.716-1.1A3.457,3.457,0,0,0,556.314,272.136Zm1.206.022a4.329,4.329,0,0,1-1.312,3.177,4.327,4.327,0,0,1-3.174,1.313,4.763,4.763,0,0,1-1.75-.317,4.651,4.651,0,0,1-1.487-.95,4.253,4.253,0,0,1-1.018-1.412,4.205,4.205,0,0,1-.34-1.7,4.329,4.329,0,0,1,1.312-3.178,4.326,4.326,0,0,1,3.174-1.313,4.765,4.765,0,0,1,1.75.317,4.648,4.648,0,0,1,1.487.95,4.253,4.253,0,0,1,1.018,1.412A4.21,4.21,0,0,1,557.52,272.159Zm-14.189,3.894a6.962,6.962,0,0,1-1.189.383,5.5,5.5,0,0,1-.61.1,5.616,5.616,0,0,1-.617.034,5.074,5.074,0,0,1-.852-.071,4.8,4.8,0,0,1-.814-.212,4.363,4.363,0,0,1-.761-.358,4.6,4.6,0,0,1-.692-.505l0,0a4.681,4.681,0,0,1-1-1.483,4.449,4.449,0,0,1-.336-1.729,4.509,4.509,0,0,1,.132-1.118,3.453,3.453,0,0,1,.4-.954,8.082,8.082,0,0,1,.518-.755,4.514,4.514,0,0,1,.511-.561,4.348,4.348,0,0,1,.495-.392,2.682,2.682,0,0,1,.478-.259c.149-.061.288-.113.414-.156s.237-.076.334-.1a5.038,5.038,0,0,1,.589-.1,5.145,5.145,0,0,1,.583-.034c.138,0,.282.006.43.019s.3.031.452.055a7.388,7.388,0,0,1,.923.208c.2.07.472.213.678.307v1.325l-.144-.1a3.9,3.9,0,0,0-1.06-.538,3.733,3.733,0,0,0-1.157-.179,3.535,3.535,0,0,0-1.519.33,3.014,3.014,0,0,0-.653.417,2.847,2.847,0,0,0-.814,1.044,3.535,3.535,0,0,0-.348,1.532,3.467,3.467,0,0,0,.115.893,3.51,3.51,0,0,0,.346.836,3.069,3.069,0,0,0,.546.705,2.951,2.951,0,0,0,.718.5,3.889,3.889,0,0,0,.816.306,3.439,3.439,0,0,0,.828.1,2.989,2.989,0,0,0,1.609-.442l.719-.456v1.382Z" transform="translate(-418.999 -244.693)" fill="#003189" fill-rule="evenodd"/>
</svg>
