<svg id="Layer_1" data-name="Layer 1" xmlns="http://www.w3.org/2000/svg" xmlns:xlink="http://www.w3.org/1999/xlink" viewBox="0 0 407.49 148.6"><defs><style>.cls-1{fill:none;}.cls-2{clip-path:url(#clip-path);}.cls-3{clip-path:url(#clip-path-2);}.cls-4{fill:#1284c6;}.cls-5{fill:#919396;}</style><clipPath id="clip-path"><rect class="cls-1" x="29.53" y="22.55" width="361.31" height="104.57"/></clipPath><clipPath id="clip-path-2"><rect class="cls-1" x="21.45" y="9.96" width="378.55" height="131.49"/></clipPath></defs><g class="cls-2"><g class="cls-3"><path class="cls-4" d="M68.44,76.72c7.17-1.84,12.37-8.4,11.68-17.1-.92-11.4-13.67-18.45-24.64-17.44A21.94,21.94,0,0,0,36.67,56.92c1.29.58,2.14,1.6,3.57,2C43,53.18,46.72,48.06,54.5,48.22c6.13.11,14.08,3.44,15,9.25C70.9,67.18,61.91,76.77,49,74.69c.14,1.54-.34,3.71.32,4.71,9.25-1,17.31,3,20.33,8,6.35,10.44-3.53,21.29-15.79,21.2-6.33,0-11.23-3.77-14.28-7.71-3.44-4.46-5.17-9.32-5.5-16.75H29.53c.58,15.91,9.54,30.41,24.32,31.84,12.86,1.24,24.94-5.76,28.21-14.75a24,24,0,0,0,.65-8.72c-1.06-8.3-7.41-13.27-14.27-15.75"/><path class="cls-4" d="M357.44,54.74h9c0-2.72,0-2.84,0-5.16h-12.7c-2.66-2.7-4.65-9.43-4.65-13.63s3.14-5.48,4.66-5.4c2.94.16,7.5,2.16,8.9,3.67,2.07-1.5,1.89-1.31,3-2.19-.12-.14-7.53-8.43-17.48-9.1-5.58-.38-9.57,3.79-9.57,9.69,0,6.69,4.85,13.22,8.42,17l-261.24,0v5.13c1.86,0,4.62,0,7,0V79.33h-7V86h7v19.08S92.8,111,87,111v2.69h23.06V111c-5.81,0-5.81-5.87-5.81-5.87V54.77l107.49,0,0,8.83H180.68c-5.9.47-8.05,1.76-9.49,2.47a17.73,17.73,0,0,0-4.25,3V63.57H135.86c-5.91.47-8.06,1.76-9.5,2.47q-9.49,4.88-9.5,17,0,9.33,5.73,14.53a22.49,22.49,0,0,0,14,6c5.94.42,11.62-1.29,14.95-3.6,11.83-9.13-.1-23.13-.1-23.13l-4.38.11c3.13,6.59,2.33,22.38-10.17,21.59-14.68-1.7-12.5-23.63-5.09-24.94a18.12,18.12,0,0,1,6.09-1.23h26.44A20.38,20.38,0,0,0,161.68,83q0,9.33,5.73,14.53a22.54,22.54,0,0,0,14,6c5.92.42,11.61-1.29,14.93-3.6,11.83-9.13-.08-23.13-.08-23.13l-4.39.11c3.13,6.59,2.33,22.38-10.18,21.59-14.68-1.7-12.5-23.63-5.08-24.94a18.08,18.08,0,0,1,6.08-1.23h29.05v32.8s0,5.87-5.84,5.87v2.69H229V111c-5.83,0-5.83-5.87-5.83-5.87V54.74h12.36c0,11-.81,21.5,0,30.58a20.3,20.3,0,0,0,20.54,18.59,21.2,21.2,0,0,0,14-6c.35-.29.86-1,1.43-.84v8.86c-5.54,1.35-13,3.89-14,9.14-1.51,7.84,6.69,11.76,12.57,11.73,6.92-.06,13.45-4.24,14.58-10-2.69-.65-6.56-.12-9.73-.29-.81,3.18-2,6.52-5.13,6.29-2.91-.21-4.31-4.17-3.43-7.72,1.66-4.78,8.83-6.67,15.15-5.14,5.61,1.36,10.34,6.6,12.57,12a29.94,29.94,0,0,1,1.43,4.86c2.88-.17,6.46.35,8.86-.29-1-10.2-7.31-16.15-15.71-19.15a60.55,60.55,0,0,0-6-1.73V54.74l12.69,0V87c0,9.49,9.44,15.31,17.49,16.12a22.47,22.47,0,0,0,5.74,0c7.9-.88,17.28-6.43,17.28-16.12V54.74c4.85.07,5.34,0,9.47,0v50.35s0,5.87-5.82,5.87v2.69h23.08V111c-5.83,0-5.83-5.87-5.83-5.87V54.75Zm-86.2,32c-.58,7.14-6.88,12.55-15.47,10.29-3.38-.9-8-4.44-8.28-8.29-.85-4.07-.55-10.52-.55-16.58V54.74h24.3Zm53.14.28c.09,4.56-3.36,10.91-8.43,11s-9-5.72-9-11V54.74h17.47Z"/><path class="cls-5" d="M389.57,102.65h-.52a1.43,1.43,0,0,1-1.83,1.21A2.81,2.81,0,0,1,385,101s-.06-2.34,2-2.77h1.92l0-2.16H390V95.3H376.13c-.28-.53-1.54-2.76-2.91-3.51a1.58,1.58,0,0,0-.75-.19h-2.1v1.31c2.82-.25,3.52.61,3.72.78l1.2,1.61h-11v.78h1.29c.08,1.65-.13,3.28,0,4.68a2.84,2.84,0,0,0,2.75,2.83,2.8,2.8,0,0,0,1.89-.92l.09-.09v1.17s0,.89-.82.89v.4h3.28v-.4c-.82,0-.82-.89-.82-.89V96.08h3v7.67s0,.89-.84.89v.4h3.31v-.4a.86.86,0,0,1-.85-.89V96.08h2.52a2.84,2.84,0,0,1,1.29,2.76,3,3,0,0,1-.57,1.56,2,2,0,0,1-2.49.45v.64c.47.19.74.46,1.09,1.27a4.14,4.14,0,0,0,.71,1.46,2,2,0,0,0,2.06.7,3.21,3.21,0,0,0,1.28-1,3.47,3.47,0,0,0-.26-.53s-.56.67-1,.6c-1.11-.09-2-2.12-2-2.12a2.63,2.63,0,0,0,2.17-1.42h1.55v-1h-1.24a3.36,3.36,0,0,0-1.29-3.41h7.22v1.27H386c-2.06.09-2.5,2.76-2.54,3-.15.59-.11,4.56,3.42,4.74,2.64.12,2.7-1.71,2.7-2.41m-19.28-1.25a1.62,1.62,0,0,1-2,1.14,1.9,1.9,0,0,1-1.12-1.26,14.63,14.63,0,0,1-.05-2.54V96.21c0-.06,0-.12.05-.13h3.15Z"/><path class="cls-5" d="M389.37,104.38l-.78.65c.84.7.87.64,1.72,1.38l.53-.43c-.73-.81-.7-.77-1.47-1.6"/></g></g></svg>